<svg xmlns="http://www.w3.org/2000/svg" version="1.1" xmlns:xlink="http://www.w3.org/1999/xlink" xmlns:svgjs="http://svgjs.com/svgjs" width="1440" height="560" preserveAspectRatio="none" viewBox="0 0 1440 560"><g mask="url(&quot;#SvgjsMask1010&quot;)" fill="none"><path d="M-160.19 384.86C-59.12 382.36 21.36 237.35 217.08 239.26 412.8 241.17 467.64 567.39 594.35 593.67" stroke="rgba(255, 217, 128, 1)" stroke-width="2"></path><path d="M-202.71 297.17C-79.59 307.1-6.5 549.46 218.89 554.77 444.28 560.08 533.95 616.85 640.49 617.02" stroke="rgba(255, 217, 128, 1)" stroke-width="2"></path><path d="M-211.06 342.4C-95.75 339.13-10.34 164.33 216.47 168.8 443.28 173.27 490.02 601.91 644 646.14" stroke="rgba(255, 217, 128, 1)" stroke-width="2"></path><path d="M-198.05 510.94C-90.29 511.17 14.61 580.94 227.27 580.94 439.92 580.94 439.66 510.93 652.58 510.94 865.51 510.95 967.91 622.62 1077.9 623.57" stroke="rgba(255, 217, 128, 1)" stroke-width="2"></path><path d="M-74.28 221.54C45.42 227.27 116.91 423.62 355.23 434.34 593.54 445.06 666.1 632.05 784.73 637.06" stroke="rgba(255, 217, 128, 1)" stroke-width="2"></path></g><defs><mask id="SvgjsMask1010"><rect width="1440" height="560" fill="#ffffff"></rect></mask></defs></svg>