<svg xmlns="http://www.w3.org/2000/svg" version="1.1" xmlns:xlink="http://www.w3.org/1999/xlink" xmlns:svgjs="http://svgjs.com/svgjs" width="1440" height="560" preserveAspectRatio="none" viewBox="0 0 1440 560"><g mask="url(&quot;#SvgjsMask1008&quot;)" fill="none"><path d="M1621.91 85.61C1524.17 85.33 1429.59 15.61 1237.27 15.61 1044.95 15.61 1046.96 85.9 852.62 85.61 658.29 85.32 574.22-91.5 467.98-95.99" stroke="rgba(255, 217, 128, 1)" stroke-width="2"></path><path d="M1596.21 504.3C1470.87 497.18 1412.45 290.67 1152.51 269.1 892.56 247.53 843.76-29.15 708.8-44.43" stroke="rgba(255, 217, 128, 1)" stroke-width="2"></path><path d="M1673.96 82.6C1476.59 87.25 1215.32 363.01 935.59 362.6 655.85 362.19 702.97-32.74 566.4-76.62" stroke="rgba(255, 217, 128, 1)" stroke-width="2"></path><path d="M1593.35 242.56C1468.23 249.71 1381.97 480.7 1150.66 477.76 919.36 474.82 868.73 21.52 707.98-26.3" stroke="rgba(255, 217, 128, 1)" stroke-width="2"></path><path d="M1473.95 145.3C1290.14 149.47 1135.38 403.97 785.13 402.9 434.87 401.83 309.22-82.51 96.3-109.58" stroke="rgba(255, 217, 128, 1)" stroke-width="2"></path></g><defs><mask id="SvgjsMask1008"><rect width="1440" height="560" fill="#ffffff"></rect></mask></defs></svg>